<svg width="96" height="96" viewBox="0 0 96 96" fill="none" xmlns="http://www.w3.org/2000/svg">
  <rect width="96" height="96" rx="28" fill="#13161B"/>
  <path d="M64.5 18C73.0604 18 80 24.9396 80 33.5C80 40.6627 75.1418 46.6907 68.5422 48.47L54.7301 77.4406C52.6653 81.7704 46.4976 81.708 44.5209 77.3372L31.3074 48.1264C25.3124 45.9985 21 40.2782 21 33.5C21 24.9396 27.9396 18 36.5 18H64.5Z" fill="#FFB169"/>
  <path d="M40.5617 28.5C47.9734 28.5 54.3038 33.1746 56.7729 39.7374L57.0871 40.6102H48.1562C46.3635 37.6346 43.091 35.75 39.4542 35.75C33.8261 35.75 29.75 40.0142 29.75 45.4688C29.75 51.0184 33.6831 55.25 39.4542 55.25C43.091 55.25 46.3635 53.3654 48.1562 50.3898H57.0871L56.7729 51.2626C54.3038 57.8254 47.9734 62.5 40.5617 62.5C30.466 62.5 22.5 54.7832 22.5 45.4688C22.5 36.1543 30.466 28.5 40.5617 28.5ZM66.9224 28.5C70.981 28.5 74.5 31.5387 74.5 35.6875C74.5 39.8383 70.981 42.875 66.9224 42.875H62.7578V62.5H55.9219V28.5H66.9224Z" fill="#FFF5EA"/>
</svg>
