<svg width="96" height="96" viewBox="0 0 96 96" fill="none" xmlns="http://www.w3.org/2000/svg">
  <rect width="96" height="96" rx="28" fill="#12151B"/>
  <rect x="14" y="14" width="68" height="68" rx="22" fill="#171C24" stroke="#2D3440"/>
  <path d="M32 29.5H48C60.4264 29.5 68.5 37.1266 68.5 48C68.5 58.8734 60.4264 66.5 48 66.5H40.5V58.5H47.5C54.6847 58.5 60 54.1833 60 48C60 41.8167 54.6847 37.5 47.5 37.5H40V72H32V29.5Z" fill="#FFF7EE"/>
  <path d="M56.5 22.5C65.0604 22.5 72 29.4396 72 38C72 44.0805 68.4965 49.3429 63.4018 51.8682" stroke="#FFB067" stroke-width="6" stroke-linecap="round"/>
  <circle cx="64" cy="29" r="4" fill="#FFD4A8"/>
</svg>
